<svg xmlns="http://www.w3.org/2000/svg" version="1.1" viewBox="0.00 0.00 1448.00 1447.00">
<path fill="#fefefc" d="
  M 948.56 664.31
  Q 953.71 666.31 958.81 667.65
  Q 974.03 671.65 990.88 676.73
  C 1009.02 682.20 1025.99 689.39 1041.99 699.46
  Q 1050.77 704.99 1057.83 711.47
  C 1075.82 728.00 1085.28 750.20 1091.18 774.20
  C 1097.77 800.98 1101.30 828.43 1102.16 856.28
  Q 1102.57 869.62 1101.62 884.24
  C 1100.00 909.34 1093.57 934.57 1070.02 947.47
  C 1064.59 950.44 1058.40 953.08 1052.45 954.60
  Q 1035.98 958.80 1023.98 959.57
  C 1017.55 959.98 1010.90 960.66 1004.49 960.73
  Q 979.79 961.01 956.00 961.74
  Q 945.49 962.07 935.80 960.74
  C 920.75 958.68 909.80 950.97 907.56 935.28
  Q 905.63 921.76 904.47 899.93
  Q 903.27 877.26 900.02 854.25
  C 898.45 843.15 893.17 814.23 880.14 810.75
  Q 878.69 810.36 878.53 811.85
  Q 876.49 831.48 875.92 854.80
  Q 875.28 880.63 874.87 905.01
  Q 874.79 910.08 874.06 914.83
  Q 872.94 922.11 872.89 925.04
  Q 872.51 947.08 871.20 966.72
  Q 870.12 982.93 866.49 1000.52
  Q 862.09 1021.83 853.54 1037.62
  C 843.41 1056.33 825.23 1066.76 805.65 1073.34
  C 785.37 1080.15 763.80 1083.70 742.24 1085.82
  Q 718.54 1088.16 694.75 1088.67
  C 659.92 1089.43 625.34 1089.34 591.91 1087.32
  C 579.30 1086.56 566.55 1086.92 554.25 1086.22
  Q 506.62 1083.49 458.13 1076.04
  Q 449.06 1074.64 438.73 1072.58
  Q 420.73 1068.99 400.36 1065.00
  Q 392.98 1063.56 385.53 1061.80
  C 369.30 1057.99 356.09 1050.29 347.54 1035.81
  Q 340.40 1023.71 335.70 1008.19
  C 329.04 986.18 323.70 963.00 319.37 941.70
  Q 318.11 935.47 317.42 928.97
  Q 307.89 839.36 299.04 755.97
  C 298.56 751.37 297.48 747.10 296.81 742.74
  C 295.07 731.36 301.81 721.80 312.58 718.06
  Q 317.56 716.33 323.35 715.82
  Q 361.12 712.44 378.33 711.23
  C 394.55 710.09 411.62 710.12 427.63 713.80
  Q 442.66 717.25 448.49 731.59
  C 453.26 743.33 454.89 755.85 455.09 768.50
  C 455.56 798.70 456.46 827.62 457.28 857.92
  C 457.46 864.61 457.24 871.49 457.29 878.27
  Q 457.34 883.61 461.59 885.43
  Q 465.50 887.10 471.04 887.96
  Q 494.62 891.61 519.95 893.30
  C 563.61 896.22 605.37 897.12 653.07 897.20
  C 657.91 897.21 662.76 897.61 667.75 897.70
  C 672.31 897.79 680.07 897.23 681.83 892.47
  Q 682.62 890.34 682.50 886.59
  C 682.05 872.70 681.42 858.51 681.19 844.76
  Q 680.63 812.00 679.61 779.25
  C 679.03 760.31 679.06 736.81 678.10 722.50
  Q 675.62 685.76 669.50 644.63
  Q 663.11 601.68 650.75 531.51
  Q 649.73 525.74 648.92 520.04
  Q 648.13 514.51 647.26 508.59
  Q 643.26 481.24 639.24 452.12
  C 637.25 437.69 634.30 423.31 632.04 409.23
  Q 630.97 402.62 631.02 395.22
  C 631.13 378.17 642.82 370.82 658.28 368.30
  C 663.38 367.47 668.68 366.74 673.93 366.36
  Q 699.49 364.48 729.24 362.85
  Q 742.15 362.15 752.42 359.84
  Q 761.70 357.74 769.91 356.47
  C 784.00 354.29 798.11 360.16 803.71 373.86
  C 808.00 384.34 808.91 395.30 808.88 406.75
  Q 808.68 485.00 808.83 568.39
  C 808.83 571.38 808.50 579.78 810.05 581.71
  A 2.21 2.20 -37.1 0 0 813.05 582.12
  Q 816.80 579.45 820.22 575.81
  Q 829.14 566.32 837.76 557.58
  C 844.16 551.10 849.86 543.94 856.01 537.44
  Q 879.19 512.93 931.70 458.21
  C 944.31 445.07 955.50 432.05 966.89 417.22
  Q 975.86 405.53 987.11 394.56
  C 997.08 384.84 1008.00 377.92 1021.72 374.67
  Q 1040.88 370.14 1066.27 366.26
  Q 1097.73 361.45 1130.39 356.64
  C 1141.73 354.97 1155.68 355.00 1166.29 360.10
  C 1176.68 365.09 1180.40 374.95 1180.68 386.01
  C 1181.27 409.09 1172.08 431.72 1160.07 452.20
  Q 1151.99 466.00 1143.39 477.81
  Q 1125.49 502.40 1109.97 520.75
  C 1101.72 530.50 1092.43 540.33 1083.22 549.47
  Q 1055.67 576.83 1026.33 602.99
  Q 1019.41 609.16 1010.70 615.45
  Q 989.94 630.43 968.98 646.03
  C 963.19 650.35 957.69 653.96 951.21 656.92
  Q 948.13 658.34 947.52 662.54
  Q 947.33 663.84 948.56 664.31
  Z
  M 904.39 556.89
  Q 889.80 571.99 868.38 595.64
  Q 855.37 610.01 840.59 622.40
  C 830.49 630.87 817.53 639.90 804.64 640.70
  C 783.72 642.00 770.53 628.96 765.56 609.86
  C 762.01 596.18 761.22 583.92 761.24 568.50
  Q 761.31 506.62 761.26 443.25
  Q 761.24 428.74 761.24 412.75
  Q 761.24 408.81 756.94 407.73
  C 754.22 407.04 749.03 407.51 745.80 407.85
  C 733.53 409.13 721.37 410.46 708.76 411.14
  Q 697.11 411.76 688.84 413.63
  Q 686.46 414.17 683.98 415.20
  Q 681.92 416.05 682.21 418.42
  Q 683.06 425.43 684.11 431.24
  Q 685.81 440.60 687.35 450.72
  Q 690.99 474.72 694.40 496.77
  Q 700.33 535.23 706.45 573.87
  Q 708.02 583.79 709.71 593.58
  C 715.99 629.90 721.02 666.75 723.34 703.38
  Q 723.85 711.35 723.97 720.36
  C 724.05 726.26 724.87 731.69 725.55 737.44
  Q 726.25 743.41 726.38 750.22
  Q 726.83 772.27 727.31 795.39
  Q 728.55 855.99 730.24 906.50
  Q 730.62 917.97 727.00 926.78
  C 721.78 939.52 708.17 943.55 694.86 944.57
  Q 685.83 945.26 677.75 945.10
  C 647.07 944.47 613.87 943.41 581.49 942.66
  C 567.58 942.34 553.63 941.61 539.20 941.47
  C 534.31 941.42 529.60 940.72 524.86 940.17
  Q 520.01 939.60 514.87 939.27
  Q 497.39 938.15 479.93 936.61
  Q 460.68 934.92 442.87 929.64
  Q 433.25 926.79 425.46 920.73
  C 411.08 909.55 410.55 890.25 410.53 873.69
  C 410.51 859.69 410.64 845.81 409.98 831.79
  C 408.99 810.93 408.10 790.79 408.43 769.98
  Q 408.59 759.77 398.44 758.67
  Q 391.44 757.91 383.74 758.41
  Q 370.83 759.25 356.57 761.10
  C 354.36 761.39 351.30 762.57 351.84 765.38
  Q 353.33 773.11 353.83 780.44
  Q 355.85 810.29 358.70 839.94
  Q 359.67 850.07 360.18 860.01
  Q 362.06 897.05 364.04 915.45
  Q 366.93 942.28 371.36 962.66
  Q 374.87 978.83 379.42 991.03
  Q 382.16 998.42 386.22 1007.20
  Q 389.56 1014.45 398.04 1016.20
  Q 433.20 1023.45 464.22 1028.72
  Q 497.35 1034.35 528.87 1037.59
  Q 546.51 1039.40 567.49 1039.86
  Q 590.27 1040.35 614.99 1041.55
  Q 626.89 1042.13 679.26 1041.83
  C 700.20 1041.71 721.28 1040.42 741.92 1038.21
  Q 757.72 1036.52 772.95 1033.13
  Q 787.92 1029.79 799.57 1024.11
  C 808.23 1019.90 813.77 1014.69 817.02 1005.22
  C 820.38 995.39 821.06 984.71 822.18 974.05
  C 823.60 960.51 825.34 947.13 825.62 933.50
  Q 826.24 902.61 826.74 869.26
  C 826.85 861.90 829.03 855.08 829.32 847.66
  Q 830.94 804.88 832.37 784.94
  Q 832.97 776.48 834.60 767.82
  C 836.64 756.94 842.22 746.94 854.53 746.34
  C 865.53 745.81 876.71 749.86 887.45 754.32
  C 897.54 758.49 906.22 765.26 913.52 773.17
  Q 934.88 796.32 942.17 824.87
  C 946.40 841.47 948.75 858.01 949.76 875.99
  Q 950.40 887.39 951.57 899.31
  C 952.45 908.38 955.41 916.62 966.76 915.51
  C 972.45 914.95 978.22 914.34 983.97 914.21
  C 999.28 913.85 1014.31 913.45 1029.49 911.26
  C 1039.84 909.77 1049.41 905.72 1053.01 895.19
  Q 1054.95 889.52 1055.12 884.45
  C 1056.13 853.90 1053.48 823.57 1046.91 793.11
  C 1044.56 782.20 1041.51 772.00 1036.39 761.98
  C 1030.57 750.59 1021.58 741.87 1010.30 735.83
  Q 1003.74 732.33 995.66 729.05
  Q 973.66 720.11 951.98 714.61
  C 931.46 709.41 910.69 704.83 889.93 697.88
  C 880.51 694.73 873.63 691.24 869.50 681.37
  Q 866.22 673.53 867.35 666.12
  C 869.25 653.67 882.00 643.64 892.76 637.23
  Q 915.70 623.56 935.92 610.21
  Q 957.36 596.04 973.50 583.37
  Q 1002.12 560.87 1031.83 532.76
  C 1048.32 517.15 1063.65 502.00 1077.18 485.06
  Q 1085.59 474.54 1094.26 464.12
  C 1105.95 450.05 1115.64 434.45 1124.25 418.44
  Q 1126.15 414.91 1126.89 411.04
  C 1127.99 405.31 1121.05 405.65 1117.49 406.04
  Q 1112.27 406.61 1107.01 407.54
  Q 1077.80 412.71 1048.49 417.26
  C 1035.03 419.35 1024.38 422.34 1015.65 433.51
  Q 1010.52 440.08 1005.59 446.89
  Q 998.80 456.28 990.17 464.96
  Q 984.15 471.03 979.64 475.95
  C 954.04 503.94 929.88 530.50 904.39 556.89
  Z"
/>

<path fill="#fefefc" d="
  M 1448.00 652.13
  L 1448.00 664.25
  Q 1447.44 667.67 1447.68 671.14
  Q 1447.69 671.31 1447.51 671.32
  L 1447.51 671.32
  Q 1447.34 671.32 1447.34 671.15
  Q 1447.36 624.31 1447.39 577.55
  Q 1447.39 577.44 1447.51 577.44
  L 1447.51 577.44
  Q 1447.64 577.44 1447.64 577.56
  Q 1447.35 614.84 1448.00 652.13
  Z"
/>
<path fill="#fefefc" d="
  M 1448.00 1076.13
  L 1448.00 1086.21
  Q 1447.35 1089.19 1448.00 1092.13
  Q 1448.00 1092.19 1448.00 1092.25
  Q 1447.46 1093.26 1447.64 1094.44
  Q 1447.66 1094.56 1447.53 1094.57
  L 1447.53 1094.57
  Q 1447.40 1094.58 1447.40 1094.46
  Q 1447.14 1075.87 1447.54 1056.66
  Q 1447.54 1056.62 1447.54 1056.61
  Q 1447.56 1056.57 1447.59 1056.59
  Q 1447.62 1056.59 1447.62 1056.64
  Q 1447.49 1066.41 1448.00 1076.13
  Z"
/>

</svg>
